<svg width="168" height="52" viewBox="0 0 168 52" fill="none" xmlns="http://www.w3.org/2000/svg">
<g filter="url(#filter0_d_167_391)">
<path d="M0 14.608C0 2.57831 3.43775 0 19.4773 0H140.523C156.562 0 160 2.57831 160 14.608V29.392C160 41.4217 156.562 44 140.523 44H19.4773C3.43775 44 0 41.4217 0 29.392V14.608Z" fill="#21A038"/>
</g>
<path d="M55.77 27V16.5H60.135C61.245 16.5 62.115 16.73 62.745 17.19C63.385 17.64 63.705 18.305 63.705 19.185C63.705 20.055 63.4 20.715 62.79 21.165C62.18 21.605 61.38 21.825 60.39 21.825L60.645 21.45C61.815 21.45 62.705 21.68 63.315 22.14C63.925 22.6 64.23 23.275 64.23 24.165C64.23 25.065 63.91 25.765 63.27 26.265C62.64 26.755 61.69 27 60.42 27H55.77ZM56.865 26.115H60.42C61.31 26.115 61.985 25.95 62.445 25.62C62.905 25.29 63.135 24.78 63.135 24.09C63.135 23.41 62.905 22.91 62.445 22.59C61.985 22.27 61.31 22.11 60.42 22.11H56.865V26.115ZM56.865 21.255H60.075C60.885 21.255 61.505 21.095 61.935 20.775C62.375 20.445 62.595 19.96 62.595 19.32C62.595 18.68 62.375 18.2 61.935 17.88C61.505 17.55 60.885 17.385 60.075 17.385H56.865V21.255ZM69.9904 27.075C69.2304 27.075 68.5454 26.905 67.9354 26.565C67.3354 26.215 66.8604 25.74 66.5104 25.14C66.1604 24.53 65.9854 23.835 65.9854 23.055C65.9854 22.265 66.1604 21.57 66.5104 20.97C66.8604 20.37 67.3354 19.9 67.9354 19.56C68.5354 19.22 69.2204 19.05 69.9904 19.05C70.7704 19.05 71.4604 19.22 72.0604 19.56C72.6704 19.9 73.1454 20.37 73.4854 20.97C73.8354 21.57 74.0104 22.265 74.0104 23.055C74.0104 23.835 73.8354 24.53 73.4854 25.14C73.1454 25.74 72.6704 26.215 72.0604 26.565C71.4504 26.905 70.7604 27.075 69.9904 27.075ZM69.9904 26.13C70.5604 26.13 71.0654 26.005 71.5054 25.755C71.9454 25.495 72.2904 25.135 72.5404 24.675C72.8004 24.205 72.9304 23.665 72.9304 23.055C72.9304 22.435 72.8004 21.895 72.5404 21.435C72.2904 20.975 71.9454 20.62 71.5054 20.37C71.0654 20.11 70.5654 19.98 70.0054 19.98C69.4454 19.98 68.9454 20.11 68.5054 20.37C68.0654 20.62 67.7154 20.975 67.4554 21.435C67.1954 21.895 67.0654 22.435 67.0654 23.055C67.0654 23.665 67.1954 24.205 67.4554 24.675C67.7154 25.135 68.0654 25.495 68.5054 25.755C68.9454 26.005 69.4404 26.13 69.9904 26.13ZM76.2865 27V19.125H77.3515V25.38L82.6165 19.125H83.5615V27H82.4965V20.73L77.2465 27H76.2865ZM79.8565 17.985C79.1965 17.985 78.6615 17.82 78.2515 17.49C77.8515 17.15 77.6415 16.665 77.6215 16.035H78.3865C78.3965 16.435 78.5365 16.75 78.8065 16.98C79.0765 17.21 79.4265 17.325 79.8565 17.325C80.2865 17.325 80.6365 17.21 80.9065 16.98C81.1865 16.75 81.3315 16.435 81.3415 16.035H82.1065C82.0965 16.665 81.8865 17.15 81.4765 17.49C81.0665 17.82 80.5265 17.985 79.8565 17.985ZM88.1136 27V19.77L88.3836 20.055H85.1286V19.125H92.1636V20.055H88.9086L89.1786 19.77V27H88.1136ZM93.7035 27V19.125H94.7685V25.38L100.033 19.125H100.978V27H99.9135V20.73L94.6635 27H93.7035Z" fill="white"/>
<defs>
<filter id="filter0_d_167_391" x="0" y="0" width="168" height="52" filterUnits="userSpaceOnUse" color-interpolation-filters="sRGB">
<feFlood flood-opacity="0" result="BackgroundImageFix"/>
<feColorMatrix in="SourceAlpha" type="matrix" values="0 0 0 0 0 0 0 0 0 0 0 0 0 0 0 0 0 0 127 0" result="hardAlpha"/>
<feOffset dx="4" dy="4"/>
<feGaussianBlur stdDeviation="2"/>
<feComposite in2="hardAlpha" operator="out"/>
<feColorMatrix type="matrix" values="0 0 0 0 0 0 0 0 0 0 0 0 0 0 0 0 0 0 0.25 0"/>
<feBlend mode="normal" in2="BackgroundImageFix" result="effect1_dropShadow_167_391"/>
<feBlend mode="normal" in="SourceGraphic" in2="effect1_dropShadow_167_391" result="shape"/>
</filter>
</defs>
</svg>
