<svg width="168" height="52" viewBox="0 0 168 52" fill="none" xmlns="http://www.w3.org/2000/svg">
<g filter="url(#filter0_d_159_334)">
<g filter="url(#filter1_d_159_334)">
<path d="M0 14.608C0 2.57831 3.43775 0 19.4773 0H140.523C156.562 0 160 2.57831 160 14.608V29.392C160 41.4217 156.562 44 140.523 44H19.4773C3.43775 44 0 41.4217 0 29.392V14.608Z" fill="#21A038"/>
</g>
<path d="M25.35 24.16L25.62 23.63C25.9267 23.8967 26.27 24.0967 26.65 24.23C27.0367 24.3567 27.4233 24.4233 27.81 24.43C28.1967 24.43 28.55 24.3733 28.87 24.26C29.1967 24.1467 29.46 23.98 29.66 23.76C29.86 23.5333 29.96 23.26 29.96 22.94C29.96 22.5333 29.7967 22.22 29.47 22C29.15 21.78 28.7033 21.67 28.13 21.67H26.63V21.07H28.09C28.5833 21.07 28.9667 20.9667 29.24 20.76C29.52 20.5467 29.66 20.2533 29.66 19.88C29.66 19.6133 29.58 19.3867 29.42 19.2C29.2667 19.0067 29.0533 18.86 28.78 18.76C28.5133 18.6533 28.2133 18.5967 27.88 18.59C27.5467 18.5767 27.2 18.62 26.84 18.72C26.4867 18.8133 26.1433 18.9633 25.81 19.17L25.57 18.56C25.9833 18.3133 26.4133 18.1433 26.86 18.05C27.3067 17.95 27.74 17.9167 28.16 17.95C28.58 17.9833 28.9567 18.08 29.29 18.24C29.63 18.4 29.9 18.61 30.1 18.87C30.3 19.13 30.4 19.44 30.4 19.8C30.4 20.1333 30.3133 20.4267 30.14 20.68C29.9733 20.9333 29.7367 21.13 29.43 21.27C29.13 21.4033 28.7733 21.47 28.36 21.47L28.4 21.25C28.8667 21.25 29.27 21.3233 29.61 21.47C29.9567 21.6167 30.2233 21.8267 30.41 22.1C30.6033 22.3667 30.7 22.68 30.7 23.04C30.7 23.38 30.6133 23.6833 30.44 23.95C30.2733 24.21 30.04 24.43 29.74 24.61C29.4467 24.7833 29.1167 24.91 28.75 24.99C28.3833 25.0633 28 25.0833 27.6 25.05C27.2 25.0167 26.8067 24.93 26.42 24.79C26.0333 24.6433 25.6767 24.4333 25.35 24.16ZM35.6274 25V23.84L35.5974 23.65V21.71C35.5974 21.2633 35.4708 20.92 35.2174 20.68C34.9708 20.44 34.6008 20.32 34.1074 20.32C33.7674 20.32 33.4441 20.3767 33.1374 20.49C32.8308 20.6033 32.5708 20.7533 32.3574 20.94L32.0374 20.41C32.3041 20.1833 32.6241 20.01 32.9974 19.89C33.3708 19.7633 33.7641 19.7 34.1774 19.7C34.8574 19.7 35.3808 19.87 35.7474 20.21C36.1208 20.5433 36.3074 21.0533 36.3074 21.74V25H35.6274ZM33.8174 25.05C33.4241 25.05 33.0808 24.9867 32.7874 24.86C32.5008 24.7267 32.2808 24.5467 32.1274 24.32C31.9741 24.0867 31.8974 23.82 31.8974 23.52C31.8974 23.2467 31.9608 23 32.0874 22.78C32.2208 22.5533 32.4341 22.3733 32.7274 22.24C33.0274 22.1 33.4274 22.03 33.9274 22.03H35.7374V22.56H33.9474C33.4408 22.56 33.0874 22.65 32.8874 22.83C32.6941 23.01 32.5974 23.2333 32.5974 23.5C32.5974 23.8 32.7141 24.04 32.9474 24.22C33.1808 24.4 33.5074 24.49 33.9274 24.49C34.3274 24.49 34.6708 24.4 34.9574 24.22C35.2508 24.0333 35.4641 23.7667 35.5974 23.42L35.7574 23.91C35.6241 24.2567 35.3908 24.5333 35.0574 24.74C34.7308 24.9467 34.3174 25.05 33.8174 25.05ZM40.9075 25.05C40.4542 25.05 40.0442 24.9467 39.6775 24.74C39.3108 24.5267 39.0175 24.2233 38.7975 23.83C38.5842 23.43 38.4775 22.9433 38.4775 22.37C38.4775 21.7967 38.5842 21.3133 38.7975 20.92C39.0108 20.52 39.3008 20.2167 39.6675 20.01C40.0342 19.8033 40.4475 19.7 40.9075 19.7C41.4075 19.7 41.8542 19.8133 42.2475 20.04C42.6475 20.26 42.9608 20.5733 43.1875 20.98C43.4142 21.38 43.5275 21.8433 43.5275 22.37C43.5275 22.9033 43.4142 23.37 43.1875 23.77C42.9608 24.17 42.6475 24.4833 42.2475 24.71C41.8542 24.9367 41.4075 25.05 40.9075 25.05ZM38.1975 26.94V19.75H38.8775V21.33L38.8075 22.38L38.9075 23.44V26.94H38.1975ZM40.8575 24.42C41.2308 24.42 41.5642 24.3367 41.8575 24.17C42.1508 23.9967 42.3842 23.7567 42.5575 23.45C42.7308 23.1367 42.8175 22.7767 42.8175 22.37C42.8175 21.9633 42.7308 21.6067 42.5575 21.3C42.3842 20.9933 42.1508 20.7533 41.8575 20.58C41.5642 20.4067 41.2308 20.32 40.8575 20.32C40.4842 20.32 40.1475 20.4067 39.8475 20.58C39.5542 20.7533 39.3208 20.9933 39.1475 21.3C38.9808 21.6067 38.8975 21.9633 38.8975 22.37C38.8975 22.7767 38.9808 23.1367 39.1475 23.45C39.3208 23.7567 39.5542 23.9967 39.8475 24.17C40.1475 24.3367 40.4842 24.42 40.8575 24.42ZM47.303 25.05C46.7563 25.05 46.2763 24.9367 45.863 24.71C45.4496 24.4767 45.1263 24.16 44.893 23.76C44.6596 23.3533 44.543 22.89 44.543 22.37C44.543 21.85 44.653 21.39 44.873 20.99C45.0996 20.59 45.4063 20.2767 45.793 20.05C46.1863 19.8167 46.6263 19.7 47.113 19.7C47.6063 19.7 48.043 19.8133 48.423 20.04C48.8096 20.26 49.113 20.5733 49.333 20.98C49.553 21.38 49.663 21.8433 49.663 22.37C49.663 22.4033 49.6596 22.44 49.653 22.48C49.653 22.5133 49.653 22.55 49.653 22.59H45.083V22.06H49.273L48.993 22.27C48.993 21.89 48.9096 21.5533 48.743 21.26C48.583 20.96 48.363 20.7267 48.083 20.56C47.803 20.3933 47.4796 20.31 47.113 20.31C46.753 20.31 46.4296 20.3933 46.143 20.56C45.8563 20.7267 45.633 20.96 45.473 21.26C45.313 21.56 45.233 21.9033 45.233 22.29V22.4C45.233 22.8 45.3196 23.1533 45.493 23.46C45.673 23.76 45.9196 23.9967 46.233 24.17C46.553 24.3367 46.9163 24.42 47.323 24.42C47.643 24.42 47.9396 24.3633 48.213 24.25C48.493 24.1367 48.733 23.9633 48.933 23.73L49.333 24.19C49.0996 24.47 48.8063 24.6833 48.453 24.83C48.1063 24.9767 47.723 25.05 47.303 25.05ZM51.2346 25V19.75H54.9546V20.37H51.7646L51.9446 20.19V25H51.2346ZM55.9807 25V19.75H56.6907V23.92L60.2007 19.75H60.8307V25H60.1207V20.82L56.6207 25H55.9807ZM65.0655 25.05C64.5455 25.05 64.0788 24.9367 63.6655 24.71C63.2588 24.4767 62.9388 24.16 62.7055 23.76C62.4721 23.3533 62.3555 22.89 62.3555 22.37C62.3555 21.8433 62.4721 21.38 62.7055 20.98C62.9388 20.58 63.2588 20.2667 63.6655 20.04C64.0788 19.8133 64.5455 19.7 65.0655 19.7C65.5121 19.7 65.9155 19.7867 66.2755 19.96C66.6355 20.1333 66.9188 20.3933 67.1255 20.74L66.5955 21.1C66.4155 20.8333 66.1921 20.6367 65.9255 20.51C65.6588 20.3833 65.3688 20.32 65.0555 20.32C64.6821 20.32 64.3455 20.4067 64.0455 20.58C63.7455 20.7467 63.5088 20.9833 63.3355 21.29C63.1621 21.5967 63.0755 21.9567 63.0755 22.37C63.0755 22.7833 63.1621 23.1433 63.3355 23.45C63.5088 23.7567 63.7455 23.9967 64.0455 24.17C64.3455 24.3367 64.6821 24.42 65.0555 24.42C65.3688 24.42 65.6588 24.3567 65.9255 24.23C66.1921 24.1033 66.4155 23.91 66.5955 23.65L67.1255 24.01C66.9188 24.35 66.6355 24.61 66.2755 24.79C65.9155 24.9633 65.5121 25.05 65.0655 25.05ZM69.4026 25V20.18L69.5826 20.37H67.4126V19.75H72.1026V20.37H69.9326L70.1126 20.18V25H69.4026ZM75.8391 25.05C75.3858 25.05 74.9758 24.9467 74.6091 24.74C74.2425 24.5267 73.9491 24.2233 73.7291 23.83C73.5158 23.43 73.4091 22.9433 73.4091 22.37C73.4091 21.7967 73.5158 21.3133 73.7291 20.92C73.9425 20.52 74.2325 20.2167 74.5991 20.01C74.9658 19.8033 75.3791 19.7 75.8391 19.7C76.3391 19.7 76.7858 19.8133 77.1791 20.04C77.5791 20.26 77.8925 20.5733 78.1191 20.98C78.3458 21.38 78.4591 21.8433 78.4591 22.37C78.4591 22.9033 78.3458 23.37 78.1191 23.77C77.8925 24.17 77.5791 24.4833 77.1791 24.71C76.7858 24.9367 76.3391 25.05 75.8391 25.05ZM73.1291 26.94V19.75H73.8091V21.33L73.7391 22.38L73.8391 23.44V26.94H73.1291ZM75.7891 24.42C76.1625 24.42 76.4958 24.3367 76.7891 24.17C77.0825 23.9967 77.3158 23.7567 77.4891 23.45C77.6625 23.1367 77.7491 22.7767 77.7491 22.37C77.7491 21.9633 77.6625 21.6067 77.4891 21.3C77.3158 20.9933 77.0825 20.7533 76.7891 20.58C76.4958 20.4067 76.1625 20.32 75.7891 20.32C75.4158 20.32 75.0791 20.4067 74.7791 20.58C74.4858 20.7533 74.2525 20.9933 74.0791 21.3C73.9125 21.6067 73.8291 21.9633 73.8291 22.37C73.8291 22.7767 73.9125 23.1367 74.0791 23.45C74.2525 23.7567 74.4858 23.9967 74.7791 24.17C75.0791 24.3367 75.4158 24.42 75.7891 24.42ZM79.9846 25V19.75H80.6946V23.92L84.2046 19.75H84.8346V25H84.1246V20.82L80.6246 25H79.9846ZM89.5794 25.05C89.126 25.05 88.716 24.9467 88.3494 24.74C87.9827 24.5267 87.6894 24.2233 87.4694 23.83C87.256 23.43 87.1494 22.9433 87.1494 22.37C87.1494 21.7967 87.256 21.3133 87.4694 20.92C87.6827 20.52 87.9727 20.2167 88.3394 20.01C88.706 19.8033 89.1194 19.7 89.5794 19.7C90.0794 19.7 90.526 19.8133 90.9194 20.04C91.3194 20.26 91.6327 20.5733 91.8594 20.98C92.086 21.38 92.1994 21.8433 92.1994 22.37C92.1994 22.9033 92.086 23.37 91.8594 23.77C91.6327 24.17 91.3194 24.4833 90.9194 24.71C90.526 24.9367 90.0794 25.05 89.5794 25.05ZM86.8694 26.94V19.75H87.5494V21.33L87.4794 22.38L87.5794 23.44V26.94H86.8694ZM89.5294 24.42C89.9027 24.42 90.236 24.3367 90.5294 24.17C90.8227 23.9967 91.056 23.7567 91.2294 23.45C91.4027 23.1367 91.4894 22.7767 91.4894 22.37C91.4894 21.9633 91.4027 21.6067 91.2294 21.3C91.056 20.9933 90.8227 20.7533 90.5294 20.58C90.236 20.4067 89.9027 20.32 89.5294 20.32C89.156 20.32 88.8194 20.4067 88.5194 20.58C88.226 20.7533 87.9927 20.9933 87.8194 21.3C87.6527 21.6067 87.5694 21.9633 87.5694 22.37C87.5694 22.7767 87.6527 23.1367 87.8194 23.45C87.9927 23.7567 88.226 23.9967 88.5194 24.17C88.8194 24.3367 89.156 24.42 89.5294 24.42ZM95.8848 25.05C95.3782 25.05 94.9215 24.9367 94.5148 24.71C94.1148 24.4767 93.7982 24.16 93.5648 23.76C93.3315 23.3533 93.2148 22.89 93.2148 22.37C93.2148 21.8433 93.3315 21.38 93.5648 20.98C93.7982 20.58 94.1148 20.2667 94.5148 20.04C94.9148 19.8133 95.3715 19.7 95.8848 19.7C96.4048 19.7 96.8648 19.8133 97.2648 20.04C97.6715 20.2667 97.9882 20.58 98.2148 20.98C98.4482 21.38 98.5648 21.8433 98.5648 22.37C98.5648 22.89 98.4482 23.3533 98.2148 23.76C97.9882 24.16 97.6715 24.4767 97.2648 24.71C96.8582 24.9367 96.3982 25.05 95.8848 25.05ZM95.8848 24.42C96.2648 24.42 96.6015 24.3367 96.8948 24.17C97.1882 23.9967 97.4182 23.7567 97.5848 23.45C97.7582 23.1367 97.8448 22.7767 97.8448 22.37C97.8448 21.9567 97.7582 21.5967 97.5848 21.29C97.4182 20.9833 97.1882 20.7467 96.8948 20.58C96.6015 20.4067 96.2682 20.32 95.8948 20.32C95.5215 20.32 95.1882 20.4067 94.8948 20.58C94.6015 20.7467 94.3682 20.9833 94.1948 21.29C94.0215 21.5967 93.9348 21.9567 93.9348 22.37C93.9348 22.7767 94.0215 23.1367 94.1948 23.45C94.3682 23.7567 94.6015 23.9967 94.8948 24.17C95.1882 24.3367 95.5182 24.42 95.8848 24.42ZM100.082 25V19.75H102.402C102.996 19.75 103.462 19.8633 103.802 20.09C104.149 20.3167 104.322 20.65 104.322 21.09C104.322 21.5167 104.159 21.8467 103.832 22.08C103.506 22.3067 103.076 22.42 102.542 22.42L102.682 22.21C103.309 22.21 103.769 22.3267 104.062 22.56C104.356 22.7933 104.502 23.13 104.502 23.57C104.502 24.0233 104.336 24.3767 104.002 24.63C103.676 24.8767 103.166 25 102.472 25H100.082ZM100.772 24.44H102.442C102.889 24.44 103.226 24.37 103.452 24.23C103.686 24.0833 103.802 23.85 103.802 23.53C103.802 23.21 103.699 22.9767 103.492 22.83C103.286 22.6833 102.959 22.61 102.512 22.61H100.772V24.44ZM100.772 22.08H102.352C102.759 22.08 103.069 22.0033 103.282 21.85C103.502 21.6967 103.612 21.4733 103.612 21.18C103.612 20.8867 103.502 20.6667 103.282 20.52C103.069 20.3733 102.759 20.3 102.352 20.3H100.772V22.08ZM109.426 25V23.84L109.396 23.65V21.71C109.396 21.2633 109.27 20.92 109.016 20.68C108.77 20.44 108.4 20.32 107.906 20.32C107.566 20.32 107.243 20.3767 106.936 20.49C106.63 20.6033 106.37 20.7533 106.156 20.94L105.836 20.41C106.103 20.1833 106.423 20.01 106.796 19.89C107.17 19.7633 107.563 19.7 107.976 19.7C108.656 19.7 109.18 19.87 109.546 20.21C109.92 20.5433 110.106 21.0533 110.106 21.74V25H109.426ZM107.616 25.05C107.223 25.05 106.88 24.9867 106.586 24.86C106.3 24.7267 106.08 24.5467 105.926 24.32C105.773 24.0867 105.696 23.82 105.696 23.52C105.696 23.2467 105.76 23 105.886 22.78C106.02 22.5533 106.233 22.3733 106.526 22.24C106.826 22.1 107.226 22.03 107.726 22.03H109.536V22.56H107.746C107.24 22.56 106.886 22.65 106.686 22.83C106.493 23.01 106.396 23.2333 106.396 23.5C106.396 23.8 106.513 24.04 106.746 24.22C106.98 24.4 107.306 24.49 107.726 24.49C108.126 24.49 108.47 24.4 108.756 24.22C109.05 24.0333 109.263 23.7667 109.396 23.42L109.556 23.91C109.423 24.2567 109.19 24.5333 108.856 24.74C108.53 24.9467 108.116 25.05 107.616 25.05ZM112.996 25V20.18L113.176 20.37H111.006V19.75H115.696V20.37H113.526L113.706 20.18V25H112.996ZM118.983 21.6C119.643 21.6067 120.143 21.7533 120.483 22.04C120.83 22.3267 121.003 22.74 121.003 23.28C121.003 23.84 120.816 24.27 120.443 24.57C120.076 24.87 119.543 25.0167 118.843 25.01L116.723 25V19.75H117.433V21.58L118.983 21.6ZM118.803 24.47C119.29 24.4767 119.656 24.38 119.903 24.18C120.156 23.9733 120.283 23.6733 120.283 23.28C120.283 22.8867 120.16 22.6 119.913 22.42C119.666 22.2333 119.296 22.1367 118.803 22.13L117.433 22.11V24.45L118.803 24.47ZM124.558 25.05C124.038 25.05 123.571 24.9367 123.158 24.71C122.751 24.4767 122.431 24.16 122.198 23.76C121.964 23.3533 121.848 22.89 121.848 22.37C121.848 21.8433 121.964 21.38 122.198 20.98C122.431 20.58 122.751 20.2667 123.158 20.04C123.571 19.8133 124.038 19.7 124.558 19.7C125.004 19.7 125.408 19.7867 125.768 19.96C126.128 20.1333 126.411 20.3933 126.618 20.74L126.088 21.1C125.908 20.8333 125.684 20.6367 125.418 20.51C125.151 20.3833 124.861 20.32 124.548 20.32C124.174 20.32 123.838 20.4067 123.538 20.58C123.238 20.7467 123.001 20.9833 122.828 21.29C122.654 21.5967 122.568 21.9567 122.568 22.37C122.568 22.7833 122.654 23.1433 122.828 23.45C123.001 23.7567 123.238 23.9967 123.538 24.17C123.838 24.3367 124.174 24.42 124.548 24.42C124.861 24.42 125.151 24.3567 125.418 24.23C125.684 24.1033 125.908 23.91 126.088 23.65L126.618 24.01C126.411 24.35 126.128 24.61 125.768 24.79C125.408 24.9633 125.004 25.05 124.558 25.05ZM131.207 25V23.11L131.337 23.26H129.557C128.883 23.26 128.357 23.1133 127.977 22.82C127.597 22.5267 127.407 22.1 127.407 21.54C127.407 20.94 127.61 20.4933 128.017 20.2C128.423 19.9 128.967 19.75 129.647 19.75H131.857V25H131.207ZM127.367 25L128.807 22.98H129.547L128.137 25H127.367ZM131.207 22.9V20.16L131.337 20.37H129.667C129.18 20.37 128.8 20.4633 128.527 20.65C128.26 20.8367 128.127 21.14 128.127 21.56C128.127 22.34 128.623 22.73 129.617 22.73H131.337L131.207 22.9Z" fill="white"/>
</g>
<defs>
<filter id="filter0_d_159_334" x="0" y="0" width="162" height="46" filterUnits="userSpaceOnUse" color-interpolation-filters="sRGB">
<feFlood flood-opacity="0" result="BackgroundImageFix"/>
<feColorMatrix in="SourceAlpha" type="matrix" values="0 0 0 0 0 0 0 0 0 0 0 0 0 0 0 0 0 0 127 0" result="hardAlpha"/>
<feOffset dx="1" dy="1"/>
<feGaussianBlur stdDeviation="0.5"/>
<feComposite in2="hardAlpha" operator="out"/>
<feColorMatrix type="matrix" values="0 0 0 0 0.854902 0 0 0 0 1 0 0 0 0 0.870588 0 0 0 0.25 0"/>
<feBlend mode="normal" in2="BackgroundImageFix" result="effect1_dropShadow_159_334"/>
<feBlend mode="normal" in="SourceGraphic" in2="effect1_dropShadow_159_334" result="shape"/>
</filter>
<filter id="filter1_d_159_334" x="0" y="0" width="168" height="52" filterUnits="userSpaceOnUse" color-interpolation-filters="sRGB">
<feFlood flood-opacity="0" result="BackgroundImageFix"/>
<feColorMatrix in="SourceAlpha" type="matrix" values="0 0 0 0 0 0 0 0 0 0 0 0 0 0 0 0 0 0 127 0" result="hardAlpha"/>
<feOffset dx="4" dy="4"/>
<feGaussianBlur stdDeviation="2"/>
<feComposite in2="hardAlpha" operator="out"/>
<feColorMatrix type="matrix" values="0 0 0 0 0 0 0 0 0 0 0 0 0 0 0 0 0 0 0.25 0"/>
<feBlend mode="normal" in2="BackgroundImageFix" result="effect1_dropShadow_159_334"/>
<feBlend mode="normal" in="SourceGraphic" in2="effect1_dropShadow_159_334" result="shape"/>
</filter>
</defs>
</svg>
